<svg xmlns="http://www.w3.org/2000/svg" xmlns:xlink="http://www.w3.org/1999/xlink" width="123.5" height="46" viewBox="0 0 123.5 46"><defs><style>.a{fill:none;}.b,.c{fill:#678391;}.c{font-size:12px;font-family:KulturistaSemiBold, Kulturista;}.d{isolation:isolate;clip-path:url(#a);}</style><clipPath id="a"><rect class="a" x="-3" y="1" width="31" height="12"/></clipPath></defs><g transform="translate(-133 -693)"><g transform="translate(0.5)"><path class="b" d="M91.429-896A11.058,11.058,0,0,1,87-896.9a11.591,11.591,0,0,1-3.643-2.457A11.592,11.592,0,0,1,80.9-903a11.058,11.058,0,0,1-.9-4.429,11.027,11.027,0,0,1,.9-4.443,11.638,11.638,0,0,1,2.457-3.629A11.592,11.592,0,0,1,87-917.957a11.059,11.059,0,0,1,4.429-.9,11.647,11.647,0,0,1,1.757.129,11.469,11.469,0,0,1,1.671.386v2.914a2.2,2.2,0,0,1-.671,1.614,2.2,2.2,0,0,1-1.614.671H90.286v2.286a1.106,1.106,0,0,1-.329.814,1.106,1.106,0,0,1-.814.329H86.857v2.286h6.857a1.106,1.106,0,0,1,.814.329,1.106,1.106,0,0,1,.329.814v3.429H96a2.143,2.143,0,0,1,1.357.457,2.378,2.378,0,0,1,.814,1.143,9.92,9.92,0,0,0,1.757-2.814,8.711,8.711,0,0,0,.643-3.357,5.207,5.207,0,0,0-.029-.571q-.029-.257-.086-.571H102.8a3.219,3.219,0,0,1,.057.571v.571a11.058,11.058,0,0,1-.9,4.429,11.592,11.592,0,0,1-2.457,3.643,11.636,11.636,0,0,1-3.629,2.457A11.027,11.027,0,0,1,91.429-896Zm-1.143-2.343v-2.229a2.2,2.2,0,0,1-1.614-.671A2.2,2.2,0,0,1,88-902.857V-904l-5.486-5.486q-.086.514-.157,1.029a7.468,7.468,0,0,0-.071,1.029,8.812,8.812,0,0,0,2.3,6.1A8.94,8.94,0,0,0,90.286-898.343Zm8-12.514a1.106,1.106,0,0,1-.814-.329,1.106,1.106,0,0,1-.329-.814v-3.429a1.106,1.106,0,0,1,.329-.814,1.106,1.106,0,0,1,.814-.329v-1.143a2.2,2.2,0,0,1,.671-1.614,2.2,2.2,0,0,1,1.614-.671,2.2,2.2,0,0,1,1.614.671,2.2,2.2,0,0,1,.671,1.614v1.143a1.106,1.106,0,0,1,.814.329,1.106,1.106,0,0,1,.329.814V-912a1.106,1.106,0,0,1-.329.814,1.106,1.106,0,0,1-.814.329Zm1.143-5.714h2.286v-1.143a1.106,1.106,0,0,0-.329-.814,1.106,1.106,0,0,0-.814-.329,1.106,1.106,0,0,0-.814.329,1.106,1.106,0,0,0-.329.814Z" transform="translate(150 1613)"/><text class="c" transform="translate(229 736)"><tspan x="0" y="0">VPN</tspan></text></g><g transform="translate(0.5)"><path class="b" d="M167.8-864.4h3.6l-.69-3.87a2.268,2.268,0,0,0,.945-.87A2.387,2.387,0,0,0,172-870.4a2.311,2.311,0,0,0-.705-1.7,2.311,2.311,0,0,0-1.7-.705,2.311,2.311,0,0,0-1.695.705,2.311,2.311,0,0,0-.705,1.7,2.387,2.387,0,0,0,.345,1.26,2.268,2.268,0,0,0,.945.87Zm1.8,8.4a11.956,11.956,0,0,1-6.885-4.785A13.781,13.781,0,0,1,160-869.08v-7.32l9.6-3.6,9.6,3.6v7.32a13.781,13.781,0,0,1-2.715,8.295A11.956,11.956,0,0,1,169.6-856Zm0-2.52a9.766,9.766,0,0,0,5.16-3.96,11.4,11.4,0,0,0,2.04-6.6v-5.67l-7.2-2.7-7.2,2.7v5.67a11.4,11.4,0,0,0,2.04,6.6A9.766,9.766,0,0,0,169.6-858.52ZM169.6-868Z" transform="translate(28 1573)"/><text class="c" transform="translate(187 736)"><tspan x="0" y="0">SSL</tspan></text></g><path class="b" d="M56.5-784.25Zm3,8.25H48.25a8.043,8.043,0,0,1-5.831-2.362A7.764,7.764,0,0,1,40-784.138a8.313,8.313,0,0,1,1.763-5.212,7.8,7.8,0,0,1,4.612-2.925,10.18,10.18,0,0,1,3.75-5.587A10.263,10.263,0,0,1,56.5-800a10.188,10.188,0,0,1,6.919,2.569A10.076,10.076,0,0,1,66.887-791a6.734,6.734,0,0,0-1.519.169,7.736,7.736,0,0,0-1.406.469,7.165,7.165,0,0,0-2.437-4.725A7.293,7.293,0,0,0,56.5-797a7.228,7.228,0,0,0-5.306,2.194A7.228,7.228,0,0,0,49-789.5h-.75a5.059,5.059,0,0,0-3.713,1.537A5.059,5.059,0,0,0,43-784.25a5.059,5.059,0,0,0,1.537,3.713A5.059,5.059,0,0,0,48.25-779H59.5Zm4.5,0a1.451,1.451,0,0,1-1.069-.431A1.451,1.451,0,0,1,62.5-777.5V-782a1.451,1.451,0,0,1,.431-1.069A1.451,1.451,0,0,1,64-783.5V-785a2.889,2.889,0,0,1,.881-2.119A2.889,2.889,0,0,1,67-788a2.889,2.889,0,0,1,2.119.881A2.889,2.889,0,0,1,70-785v1.5a1.451,1.451,0,0,1,1.069.431A1.451,1.451,0,0,1,71.5-782v4.5a1.451,1.451,0,0,1-.431,1.069A1.451,1.451,0,0,1,70-776Zm1.5-7.5h3V-785a1.451,1.451,0,0,0-.431-1.069A1.451,1.451,0,0,0,67-786.5a1.451,1.451,0,0,0-1.069.431A1.451,1.451,0,0,0,65.5-785Z" transform="translate(93 1493)"/><g class="d" transform="translate(137 725)"><text class="c" transform="translate(-3 11)"><tspan x="0" y="0">E2EE</tspan></text></g></g></svg>