<svg xmlns="http://www.w3.org/2000/svg" width="18" height="24" viewBox="0 0 18 24"><defs><style>.a{fill:#fff;}</style></defs><path class="a" d="M189-856a2.311,2.311,0,0,1-1.695-.7,2.311,2.311,0,0,1-.705-1.7h4.8a2.311,2.311,0,0,1-.705,1.7A2.311,2.311,0,0,1,189-856Zm-4.8-3.6V-862h9.6v2.4Zm.3-3.6a9.2,9.2,0,0,1-3.285-3.3A8.733,8.733,0,0,1,180-871a8.679,8.679,0,0,1,2.625-6.375A8.679,8.679,0,0,1,189-880a8.679,8.679,0,0,1,6.375,2.625A8.679,8.679,0,0,1,198-871a8.733,8.733,0,0,1-1.215,4.5,9.2,9.2,0,0,1-3.285,3.3Zm.72-2.4h7.56a6.658,6.658,0,0,0,2.085-2.37A6.459,6.459,0,0,0,195.6-871a6.369,6.369,0,0,0-1.92-4.68A6.369,6.369,0,0,0,189-877.6a6.369,6.369,0,0,0-4.68,1.92A6.369,6.369,0,0,0,182.4-871a6.459,6.459,0,0,0,.735,3.03A6.658,6.658,0,0,0,185.22-865.6ZM189-865.6Z" transform="translate(-180 880)"/></svg>