<svg xmlns="http://www.w3.org/2000/svg" width="24" height="24" viewBox="0 0 24 24">
  <path id="search_24dp_414041_FILL0_wght400_GRAD0_opsz24" d="M142.133-816l-8.4-8.4a7.944,7.944,0,0,1-2.3,1.267,8.126,8.126,0,0,1-2.767.467,8.366,8.366,0,0,1-6.15-2.517,8.366,8.366,0,0,1-2.517-6.15,8.366,8.366,0,0,1,2.517-6.15,8.366,8.366,0,0,1,6.15-2.517,8.366,8.366,0,0,1,6.15,2.517,8.366,8.366,0,0,1,2.517,6.15,8.127,8.127,0,0,1-.467,2.767,7.946,7.946,0,0,1-1.267,2.3l8.4,8.4Zm-13.467-9.333a5.786,5.786,0,0,0,4.25-1.75,5.786,5.786,0,0,0,1.75-4.25,5.786,5.786,0,0,0-1.75-4.25,5.786,5.786,0,0,0-4.25-1.75,5.786,5.786,0,0,0-4.25,1.75,5.786,5.786,0,0,0-1.75,4.25,5.786,5.786,0,0,0,1.75,4.25A5.786,5.786,0,0,0,128.667-825.333Z" transform="translate(-120 840)" fill="#fff"/>
</svg>
