<svg xmlns="http://www.w3.org/2000/svg" width="32" height="32" viewBox="0 0 32 32">
  <g id="Icon_Personal_Loan" data-name="Icon Personal Loan" transform="translate(-47 -333)">
    <circle id="Ellipse_6" data-name="Ellipse 6" cx="16" cy="16" r="16" transform="translate(47 333)" fill="#e3a4a5"/>
    <path id="credit_card_clock_24dp_414041_FILL0_wght400_GRAD0_opsz24" d="M81.778-787.556v0Zm0-8.889H96v-1.778H81.778ZM88.6-785.778H81.778a1.712,1.712,0,0,1-1.256-.522A1.712,1.712,0,0,1,80-787.556v-10.667a1.712,1.712,0,0,1,.522-1.256A1.712,1.712,0,0,1,81.778-800H96a1.712,1.712,0,0,1,1.256.522,1.712,1.712,0,0,1,.522,1.256v4.667a6.041,6.041,0,0,0-1.733-.833,6.665,6.665,0,0,0-1.911-.278,5.911,5.911,0,0,0-2.311.467,6.053,6.053,0,0,0-1.956,1.311H81.778v5.333h6.289a6.235,6.235,0,0,0,.2.911A6.15,6.15,0,0,0,88.6-785.778Zm7.111-.556.622-.622-1.667-1.667v-2.489h-.889v2.844ZM94.244-784a4.328,4.328,0,0,1-3.167-1.289,4.273,4.273,0,0,1-1.3-3.156,4.273,4.273,0,0,1,1.3-3.156,4.328,4.328,0,0,1,3.167-1.289,4.247,4.247,0,0,1,3.133,1.3,4.3,4.3,0,0,1,1.289,3.144,4.3,4.3,0,0,1-1.289,3.144A4.247,4.247,0,0,1,94.244-784Z" transform="translate(-26 1141)" fill="#023047"/>
  </g>
</svg>
