<svg xmlns="http://www.w3.org/2000/svg" width="19.2" height="24" viewBox="0 0 19.2 24">
  <g id="Icon_Notification" data-name="Icon Notification" transform="translate(-48 -50)">
    <path id="notifications_24dp_414041_FILL0_wght400_GRAD0_opsz24" d="M160-859.6V-862h2.4v-8.4a7.027,7.027,0,0,1,1.5-4.425,6.922,6.922,0,0,1,3.9-2.535v-.84a1.736,1.736,0,0,1,.525-1.275A1.736,1.736,0,0,1,169.6-880a1.736,1.736,0,0,1,1.275.525,1.736,1.736,0,0,1,.525,1.275v.84a6.922,6.922,0,0,1,3.9,2.535,7.027,7.027,0,0,1,1.5,4.425v8.4h2.4v2.4ZM169.6-868.6Zm0,12.6a2.311,2.311,0,0,1-1.695-.705,2.311,2.311,0,0,1-.705-1.7H172a2.311,2.311,0,0,1-.705,1.7A2.311,2.311,0,0,1,169.6-856Zm-4.8-6h9.6v-8.4a4.622,4.622,0,0,0-1.41-3.39,4.622,4.622,0,0,0-3.39-1.41,4.622,4.622,0,0,0-3.39,1.41,4.622,4.622,0,0,0-1.41,3.39Z" transform="translate(-112 930)" fill="#fff"/>
  </g>
</svg>
