<svg xmlns="http://www.w3.org/2000/svg" width="32" height="32" viewBox="0 0 32 32"><defs><style>.a{fill:#d6dbee;}.b{fill:#023047;}</style></defs><g transform="translate(-47 -333)"><circle class="a" cx="16" cy="16" r="16" transform="translate(47 333)"/><path class="b" d="M165.2-869.2h2.4v-2h2v-2.4h-2v-2h-2.4v2h-2v2.4h2Zm1.2,5.2a7.97,7.97,0,0,1-4.59-3.19,9.187,9.187,0,0,1-1.81-5.53v-4.88l6.4-2.4,6.4,2.4v4.88a9.187,9.187,0,0,1-1.81,5.53A7.971,7.971,0,0,1,166.4-864Zm0-1.68a6.51,6.51,0,0,0,3.44-2.64,7.6,7.6,0,0,0,1.36-4.4v-3.78l-4.8-1.8-4.8,1.8v3.78a7.6,7.6,0,0,0,1.36,4.4A6.51,6.51,0,0,0,166.4-865.68ZM166.4-872Z" transform="translate(-103.6 1221)"/></g></svg>