<svg xmlns="http://www.w3.org/2000/svg" width="30" height="24" viewBox="0 0 30 24"><defs><style>.a{fill:#fff;}</style></defs><path class="a" d="M86-776a5.778,5.778,0,0,1-4.238-1.763A5.778,5.778,0,0,1,80-782v-12a5.778,5.778,0,0,1,1.762-4.237A5.778,5.778,0,0,1,86-800h18a5.778,5.778,0,0,1,4.238,1.763A5.778,5.778,0,0,1,110-794v12a5.778,5.778,0,0,1-1.762,4.237A5.778,5.778,0,0,1,104-776Zm0-18h18a6.472,6.472,0,0,1,1.575.188,5.085,5.085,0,0,1,1.425.6V-794a2.889,2.889,0,0,0-.881-2.119A2.889,2.889,0,0,0,104-797H86a2.889,2.889,0,0,0-2.119.881A2.889,2.889,0,0,0,83-794v.787a5.085,5.085,0,0,1,1.425-.6A6.472,6.472,0,0,1,86-794Zm-2.775,4.875,16.688,4.05a1.538,1.538,0,0,0,.675,0,1.654,1.654,0,0,0,.637-.3l5.213-4.35a3.245,3.245,0,0,0-1.05-.919A2.8,2.8,0,0,0,104-791H86a2.923,2.923,0,0,0-1.706.506A2.913,2.913,0,0,0,83.225-789.125Z" transform="translate(-80 800)"/></svg>