<svg xmlns="http://www.w3.org/2000/svg" width="32" height="32" viewBox="0 0 32 32">
  <g id="Icon_Personal_Loan" data-name="Icon Personal Loan" transform="translate(-47 -333)">
    <circle id="Ellipse_6" data-name="Ellipse 6" cx="16" cy="16" r="16" transform="translate(47 333)" fill="#c4f9c9"/>
    <path id="paid_24dp_414041_FILL0_wght400_GRAD0_opsz24" d="M87.28-866.4h1.4v-1a3.641,3.641,0,0,0,1.72-.78,2.184,2.184,0,0,0,.72-1.78,2.665,2.665,0,0,0-.48-1.54,3.872,3.872,0,0,0-1.92-1.22,8,8,0,0,1-1.66-.7.932.932,0,0,1-.46-.82,1,1,0,0,1,.37-.82,1.663,1.663,0,0,1,1.07-.3,1.484,1.484,0,0,1,1,.31,1.76,1.76,0,0,1,.52.77l1.28-.52a2.68,2.68,0,0,0-.81-1.22,2.227,2.227,0,0,0-1.31-.58v-1h-1.4v1a2.745,2.745,0,0,0-1.56.88,2.229,2.229,0,0,0-.56,1.48,2.118,2.118,0,0,0,.55,1.52,4.4,4.4,0,0,0,1.73,1,7.652,7.652,0,0,1,1.75.82,1.115,1.115,0,0,1,.49.94,1.079,1.079,0,0,1-.47.97,2.006,2.006,0,0,1-1.13.31,1.815,1.815,0,0,1-1.17-.41,2.381,2.381,0,0,1-.75-1.23l-1.32.52a3.548,3.548,0,0,0,.87,1.55,3.11,3.11,0,0,0,1.53.81ZM88-864a7.79,7.79,0,0,1-3.12-.63,8.079,8.079,0,0,1-2.54-1.71,8.078,8.078,0,0,1-1.71-2.54A7.79,7.79,0,0,1,80-872a7.79,7.79,0,0,1,.63-3.12,8.079,8.079,0,0,1,1.71-2.54,8.079,8.079,0,0,1,2.54-1.71A7.789,7.789,0,0,1,88-880a7.789,7.789,0,0,1,3.12.63,8.079,8.079,0,0,1,2.54,1.71,8.079,8.079,0,0,1,1.71,2.54A7.79,7.79,0,0,1,96-872a7.79,7.79,0,0,1-.63,3.12,8.079,8.079,0,0,1-1.71,2.54,8.079,8.079,0,0,1-2.54,1.71A7.79,7.79,0,0,1,88-864Zm0-1.6a6.177,6.177,0,0,0,4.54-1.86A6.177,6.177,0,0,0,94.4-872a6.177,6.177,0,0,0-1.86-4.54A6.177,6.177,0,0,0,88-878.4a6.177,6.177,0,0,0-4.54,1.86A6.177,6.177,0,0,0,81.6-872a6.177,6.177,0,0,0,1.86,4.54A6.177,6.177,0,0,0,88-865.6ZM88-872Z" transform="translate(-25 1221)" fill="#023047"/>
  </g>
</svg>
