<svg xmlns="http://www.w3.org/2000/svg" width="32" height="32" viewBox="0 0 32 32">
  <g id="Icon_Personal_Loan" data-name="Icon Personal Loan" transform="translate(-47 -333)">
    <circle id="Ellipse_6" data-name="Ellipse 6" cx="16" cy="16" r="16" transform="translate(47 333)" fill="#ffe29a"/>
    <path id="call_24dp_414041_FILL0_wght400_GRAD0_opsz24" d="M135.067-824a13.342,13.342,0,0,1-5.489-1.211,16.42,16.42,0,0,1-4.933-3.433,16.42,16.42,0,0,1-3.433-4.933A13.343,13.343,0,0,1,120-839.067a.9.9,0,0,1,.267-.667.9.9,0,0,1,.667-.267h3.6a.827.827,0,0,1,.556.211.812.812,0,0,1,.289.5l.578,3.111a1.567,1.567,0,0,1-.022.6.935.935,0,0,1-.244.422l-2.156,2.178a10.749,10.749,0,0,0,1.056,1.589,15.638,15.638,0,0,0,1.344,1.478,15.635,15.635,0,0,0,1.444,1.278,14.053,14.053,0,0,0,1.6,1.078l2.089-2.089a1.244,1.244,0,0,1,.522-.3,1.431,1.431,0,0,1,.633-.056l3.067.622a1.028,1.028,0,0,1,.511.322.782.782,0,0,1,.2.522v3.6a.9.9,0,0,1-.267.667A.9.9,0,0,1,135.067-824Zm-12.378-10.667,1.467-1.467-.378-2.089H121.8q.111.911.311,1.8A9.737,9.737,0,0,0,122.689-834.667Zm7.956,7.956a11.03,11.03,0,0,0,1.767.6,10.844,10.844,0,0,0,1.811.289v-1.956l-2.089-.422ZM122.689-834.667ZM130.644-826.711Z" transform="translate(-65 1181)" fill="#023047"/>
  </g>
</svg>
