<svg xmlns="http://www.w3.org/2000/svg" width="32" height="32" viewBox="0 0 32 32">
  <g id="Icon_Personal_Loan" data-name="Icon Personal Loan" transform="translate(-47 -333)">
    <circle id="Ellipse_6" data-name="Ellipse 6" cx="16" cy="16" r="16" transform="translate(47 333)" fill="#a6d8e4"/>
    <path id="money_bag_24dp_414041_FILL0_wght400_GRAD0_opsz24" d="M124.8-824a4.637,4.637,0,0,1-3.411-1.389A4.637,4.637,0,0,1,120-828.8a4.807,4.807,0,0,1,.289-1.644,4.808,4.808,0,0,1,.822-1.444l3.156-3.8L122.111-840h11.778l-2.156,4.311,3.156,3.8a4.808,4.808,0,0,1,.822,1.444A4.806,4.806,0,0,1,136-828.8a4.619,4.619,0,0,1-1.4,3.411A4.648,4.648,0,0,1,131.2-824Zm3.2-4.444a1.712,1.712,0,0,1-1.256-.522,1.712,1.712,0,0,1-.522-1.256,1.712,1.712,0,0,1,.522-1.256A1.712,1.712,0,0,1,128-832a1.712,1.712,0,0,1,1.256.522,1.712,1.712,0,0,1,.522,1.256,1.712,1.712,0,0,1-.522,1.256A1.712,1.712,0,0,1,128-828.444Zm-2.111-8h4.222l.889-1.778h-6ZM124.8-825.778h6.4a2.917,2.917,0,0,0,2.144-.878,2.917,2.917,0,0,0,.878-2.144,2.9,2.9,0,0,0-.189-1.033,3.112,3.112,0,0,0-.522-.9l-3.267-3.933h-4.467l-3.289,3.911a3.076,3.076,0,0,0-.522.911,2.99,2.99,0,0,0-.189,1.044,2.917,2.917,0,0,0,.878,2.144A2.917,2.917,0,0,0,124.8-825.778Z" transform="translate(-65 1181)" fill="#023047"/>
  </g>
</svg>
