<svg xmlns="http://www.w3.org/2000/svg" width="32" height="32" viewBox="0 0 32 32">
  <g id="Icon_Personal_Loan" data-name="Icon Personal Loan" transform="translate(-47 -333)">
    <circle id="Ellipse_6" data-name="Ellipse 6" cx="16" cy="16" r="16" transform="translate(47 333)" fill="#d6dbee"/>
    <path id="directions_car_24dp_414041_FILL0_wght400_GRAD0_opsz24" d="M123-746v1a.967.967,0,0,1-.287.712A.968.968,0,0,1,122-744h-1a.968.968,0,0,1-.713-.288A.967.967,0,0,1,120-745v-8l2.1-6a1.418,1.418,0,0,1,.538-.725A1.456,1.456,0,0,1,123.5-760h11a1.456,1.456,0,0,1,.863.275,1.417,1.417,0,0,1,.537.725l2.1,6v8a.967.967,0,0,1-.288.712A.968.968,0,0,1,137-744h-1a.968.968,0,0,1-.712-.288A.968.968,0,0,1,135-745v-1Zm-.2-9h12.4l-1.05-3h-10.3Zm-.8,2v0Zm2.5,4a1.447,1.447,0,0,0,1.063-.437A1.447,1.447,0,0,0,126-750.5a1.446,1.446,0,0,0-.437-1.062A1.446,1.446,0,0,0,124.5-752a1.446,1.446,0,0,0-1.062.438A1.446,1.446,0,0,0,123-750.5a1.447,1.447,0,0,0,.438,1.063A1.447,1.447,0,0,0,124.5-749Zm9,0a1.447,1.447,0,0,0,1.063-.437A1.447,1.447,0,0,0,135-750.5a1.446,1.446,0,0,0-.437-1.062A1.446,1.446,0,0,0,133.5-752a1.446,1.446,0,0,0-1.062.438A1.446,1.446,0,0,0,132-750.5a1.447,1.447,0,0,0,.438,1.063A1.447,1.447,0,0,0,133.5-749ZM122-748h14v-5H122Z" transform="translate(-66 1101)" fill="#023047"/>
  </g>
</svg>
