<svg xmlns="http://www.w3.org/2000/svg" width="32" height="32" viewBox="0 0 32 32">
  <g id="Icon_Personal_Loan" data-name="Icon Personal Loan" transform="translate(-47 -333)">
    <circle id="Ellipse_6" data-name="Ellipse 6" cx="16" cy="16" r="16" transform="translate(47 333)" fill="#d2eaf5"/>
    <path id="support_24dp_414041_FILL0_wght400_GRAD0_opsz24" d="M88-864a7.791,7.791,0,0,1-3.12-.63,8.08,8.08,0,0,1-2.54-1.71,8.081,8.081,0,0,1-1.71-2.54A7.79,7.79,0,0,1,80-872a7.79,7.79,0,0,1,.63-3.12,8.078,8.078,0,0,1,1.71-2.54,8.078,8.078,0,0,1,2.54-1.71A7.789,7.789,0,0,1,88-880a7.789,7.789,0,0,1,3.12.63,8.078,8.078,0,0,1,2.54,1.71,8.078,8.078,0,0,1,1.71,2.54A7.79,7.79,0,0,1,96-872a7.79,7.79,0,0,1-.63,3.12,8.081,8.081,0,0,1-1.71,2.54,8.08,8.08,0,0,1-2.54,1.71A7.791,7.791,0,0,1,88-864Zm-2.32-2.04.96-2.2a3.742,3.742,0,0,1-1.45-.93,4.537,4.537,0,0,1-.95-1.47l-2.2.92a6,6,0,0,0,1.42,2.24A6.256,6.256,0,0,0,85.68-866.04Zm-1.44-7.32a4.538,4.538,0,0,1,.95-1.47,3.742,3.742,0,0,1,1.45-.93l-.92-2.2a6.22,6.22,0,0,0-2.24,1.44,6.22,6.22,0,0,0-1.44,2.24ZM88-869.6a2.315,2.315,0,0,0,1.7-.7,2.314,2.314,0,0,0,.7-1.7,2.315,2.315,0,0,0-.7-1.7,2.314,2.314,0,0,0-1.7-.7,2.314,2.314,0,0,0-1.7.7,2.315,2.315,0,0,0-.7,1.7,2.314,2.314,0,0,0,.7,1.7A2.315,2.315,0,0,0,88-869.6Zm2.32,3.56a6.223,6.223,0,0,0,2.21-1.43,6.224,6.224,0,0,0,1.43-2.21l-2.2-.96a3.8,3.8,0,0,1-.92,1.45,4.476,4.476,0,0,1-1.44.95Zm1.44-7.36,2.2-.92a6.224,6.224,0,0,0-1.43-2.21,6.225,6.225,0,0,0-2.21-1.43l-.92,2.24a3.793,3.793,0,0,1,1.42.91A4.5,4.5,0,0,1,91.76-873.4Z" transform="translate(-25 1221)" fill="#023047"/>
  </g>
</svg>
