<svg xmlns="http://www.w3.org/2000/svg" width="32" height="32" viewBox="0 0 32 32">
  <g id="Icon_Personal_Loan" data-name="Icon Personal Loan" transform="translate(-47 -333)">
    <circle id="Ellipse_6" data-name="Ellipse 6" cx="16" cy="16" r="16" transform="translate(47 333)" fill="#d2eaf5"/>
    <path id="real_estate_agent_24dp_414041_FILL0_wght400_GRAD0_opsz24" d="M53.714-890.476v-4.952L49.9-898.1l-3.81,2.667v1.143H44.571v-1.9L49.9-900l5.333,3.81v5.714ZM49.9-898.1Zm.381,3.048h.762v-.762h-.762Zm-1.524,0h.762v-.762h-.762Zm1.524,1.524h.762v-.762h-.762Zm-1.524,0h.762v-.762h-.762Zm-4.19,6.476,5.3,1.448,4.533-1.41a.871.871,0,0,0-.276-.3.708.708,0,0,0-.41-.124H49.867a6.929,6.929,0,0,1-.819-.038,3.018,3.018,0,0,1-.629-.152l-1.771-.59.419-1.486,1.543.514a5.036,5.036,0,0,0,.762.152q.438.057,1.3.076a.723.723,0,0,0-.124-.4.574.574,0,0,0-.3-.248l-4.457-1.638H44.571ZM40-884.381v-8.381h5.79a1.27,1.27,0,0,1,.267.029,2.338,2.338,0,0,1,.248.067l4.476,1.657a2.066,2.066,0,0,1,1.019.8,2.181,2.181,0,0,1,.39,1.257h1.524a2.274,2.274,0,0,1,1.619.629A2.172,2.172,0,0,1,56-886.667v.762L49.9-884l-5.333-1.486v1.1Zm1.524-1.524h1.524v-5.333H41.524Z" transform="translate(15 1241)" fill="#023047"/>
  </g>
</svg>
