<svg xmlns="http://www.w3.org/2000/svg" width="24" height="24" viewBox="0 0 24 24"><defs><style>.a{fill:#fff;}</style></defs><path class="a" d="M172-788a5.778,5.778,0,0,1-4.238-1.763A5.778,5.778,0,0,1,166-794a5.778,5.778,0,0,1,1.762-4.237A5.778,5.778,0,0,1,172-800a5.778,5.778,0,0,1,4.238,1.763A5.778,5.778,0,0,1,178-794a5.778,5.778,0,0,1-1.762,4.237A5.778,5.778,0,0,1,172-788Zm-12,12v-4.2a4.394,4.394,0,0,1,.656-2.344,4.374,4.374,0,0,1,1.744-1.631,22.269,22.269,0,0,1,4.725-1.744A20.637,20.637,0,0,1,172-786.5a20.637,20.637,0,0,1,4.875.581,22.269,22.269,0,0,1,4.725,1.744,4.374,4.374,0,0,1,1.744,1.631A4.394,4.394,0,0,1,184-780.2v4.2Zm3-3h18v-1.2a1.41,1.41,0,0,0-.206-.75,1.46,1.46,0,0,0-.544-.525,19.552,19.552,0,0,0-4.087-1.519A17.4,17.4,0,0,0,172-783.5a17.4,17.4,0,0,0-4.163.506,19.552,19.552,0,0,0-4.087,1.519,1.46,1.46,0,0,0-.544.525,1.41,1.41,0,0,0-.206.75Zm9-12a2.889,2.889,0,0,0,2.119-.881A2.889,2.889,0,0,0,175-794a2.889,2.889,0,0,0-.881-2.119A2.889,2.889,0,0,0,172-797a2.889,2.889,0,0,0-2.119.881A2.889,2.889,0,0,0,169-794a2.889,2.889,0,0,0,.881,2.119A2.889,2.889,0,0,0,172-791ZM172-794ZM172-779Z" transform="translate(-160 800)"/></svg>