<svg xmlns="http://www.w3.org/2000/svg" width="32" height="32" viewBox="0 0 32 32">
  <g id="Icon_Personal_Loan" data-name="Icon Personal Loan" transform="translate(-47 -333)">
    <circle id="Ellipse_6" data-name="Ellipse 6" cx="16" cy="16" r="16" transform="translate(47 333)" fill="#ffe29a"/>
    <path id="flight_takeoff_24dp_414041_FILL0_wght400_GRAD0_opsz24" d="M41.763-830v-1.763H57.631V-830Zm1.543-4.408L40-839.917l2.116-.573,2.468,2.072,3.085-.815-4.562-6.083L45.664-846l6.59,5.532L56-841.482a1.662,1.662,0,0,1,1.333.165,1.732,1.732,0,0,1,.826,1.069,1.662,1.662,0,0,1-.165,1.333,1.732,1.732,0,0,1-1.069.826Z" transform="translate(14.328 1187)" fill="#023047"/>
  </g>
</svg>
