<svg xmlns="http://www.w3.org/2000/svg" width="32" height="32" viewBox="0 0 32 32">
  <g id="Icon_Personal_Loan" data-name="Icon Personal Loan" transform="translate(-47 -333)">
    <circle id="Ellipse_6" data-name="Ellipse 6" cx="16" cy="16" r="16" transform="translate(47 333)" fill="#a6d8e4"/>
    <path id="water_drop_24dp_414041_FILL0_wght400_GRAD0_opsz24" d="M166.62-866.4a.638.638,0,0,0,.41-.19.559.559,0,0,0,.17-.41.59.59,0,0,0-.18-.45.579.579,0,0,0-.46-.15,3.12,3.12,0,0,1-1.74-.45,2.458,2.458,0,0,1-1.16-1.85.588.588,0,0,0-.21-.36.6.6,0,0,0-.39-.14.579.579,0,0,0-.46.21.541.541,0,0,0-.12.49,3.66,3.66,0,0,0,1.6,2.6A4.258,4.258,0,0,0,166.62-866.4Zm-.22,2.4a6.116,6.116,0,0,1-4.57-1.88,6.444,6.444,0,0,1-1.83-4.68,7.916,7.916,0,0,1,1.59-4.35A26.6,26.6,0,0,1,166.4-880a26.6,26.6,0,0,1,4.81,5.09,7.916,7.916,0,0,1,1.59,4.35,6.444,6.444,0,0,1-1.83,4.68A6.116,6.116,0,0,1,166.4-864Zm0-1.6a4.577,4.577,0,0,0,3.44-1.41,4.908,4.908,0,0,0,1.36-3.55,6.2,6.2,0,0,0-1.21-3.3,22.353,22.353,0,0,0-3.59-4.02,22.353,22.353,0,0,0-3.59,4.02,6.2,6.2,0,0,0-1.21,3.3,4.908,4.908,0,0,0,1.36,3.55A4.576,4.576,0,0,0,166.4-865.6ZM166.4-872Z" transform="translate(-103 1221)" fill="#023047"/>
  </g>
</svg>
