<svg xmlns="http://www.w3.org/2000/svg" xmlns:xlink="http://www.w3.org/1999/xlink" width="324" height="128" viewBox="0 0 324 128"><defs><style>.a{fill:#35596c;}.b{fill:none;stroke:#707070;stroke-width:4px;}.c{clip-path:url(#a);}.d{fill:#023047;}.e{fill:#9aacb5;fill-rule:evenodd;}</style><clipPath id="a"><rect class="a" width="324" height="128" transform="translate(34 123)"/></clipPath></defs><g transform="translate(-34 -123)"><line class="b" y1="120" x2="318" transform="translate(37 127)"/><line class="b" x2="317" y2="120" transform="translate(38 127)"/><g class="c"><rect class="d" width="328.889" height="185" transform="translate(30.722 98)"/><path class="e" d="M-3.44,0H.471C.543,4.024-1.064,10.711-3.44,12.071ZM16.679,0H37.308c-.043,3.472,1.934,7.5,3.287,9.805A24.49,24.49,0,0,0,55.047,21.481c2.95.927,6.182,1.067,9.634,1.643l4.193.226,7.481.17,5.214.057c2.969.485,5.978.243,8.728.793,13.591,2.724,21.14,10.011,24.653,22.782.6,2.179.817,4.664,1.247,7.141l.113,2.777.057,3.911c-.379,2.311-.266,4.62-.737,6.744a58.438,58.438,0,0,1-6.233,17c-4.087,6.985-7.988,14.12-14.452,18.7a15.757,15.757,0,0,1-5.384,2.664c-6.023,1.5-9.928-3.9-8.9-10.088a17.382,17.382,0,0,1,.68-3.457c2.309-5.8,7.994-8.642,11.617-13.149a41.264,41.264,0,0,0,7.085-11.9c1.411-3.638,2.333-9.976.85-14.339A21.972,21.972,0,0,0,96.928,46.3c-3.611-4.49-9.9-6.643-16.379-8.274l-6.461-.963-4.137-.226c-4.32-.706-8.945-.211-12.979-1.021-11.1-2.229-17.015-5.829-24.427-11.561a46.063,46.063,0,0,1-7.821-6.97q-1.416-1.529-2.833-3.061A21.972,21.972,0,0,1,16.679,0Zm36.9,0c.24.017.224,0,.341.113.644.553,1.05,1.3,1.758,1.814q-.509-.54-1.021-1.077l-.51-.793V0h35.59l-.057.17c-2.706,2.013-4.891,4.3-8.558,5.44C72.12,8.416,56.983,6.341,53.574,0ZM137.9,0c-.373,17.6,9.253,32.351,19.723,39.331,3.363,2.242,7.193,4,10.711,6.064,2.271,1.334,4.616,2.343,6.4,4.137,1.288,1.292,3,3.619,2.438,6.461-1.341,6.732-8.346,8.394-13.488,11.391-6.078,3.542-11.754,7.71-15.982,13.092a46.07,46.07,0,0,0-9.464,20.629c-1.355,6.944.041,16.242-2.266,22.215-1.077,2.79-2.609,5.692-4.76,7.424-2.821,2.271-6.122,4.437-7.65,7.991-.994,2.313-1.137,5.072-1.7,7.878-.946,4.707-1.877,9.269-5.045,11.732a9.825,9.825,0,0,1-2.833,1.53c-8.489,2.9-14.041-6.321-18.872-9.181-4.176-2.472-9.8-1.845-12.071,1.927-1.809,3-1.225,8.484,0,11.617,2.078,5.314,4.831,9.151,7.991,13.262,1.377,1.792,2.8,3.515,4.08,5.44a5.91,5.91,0,0,1,1.191,2.04H68.256q-.367-2.721-.737-5.44a54.523,54.523,0,0,1-.51-9.521v-3.57q.2-3.456.4-6.914.17-2.693.341-5.384a44.265,44.265,0,0,0-1.586-18.306,66.28,66.28,0,0,0-6.177-13.659c-1.845-3.152-3.359-6.369-5.271-9.408-2.151-3.421-4.485-6.607-6.064-10.655A33.407,33.407,0,0,1,47.4,96.572a18.177,18.177,0,0,1-.113-5.951,46.077,46.077,0,0,1,.963-4.986c1.732-5.666,4.663-10.413,7.424-15.132a51.457,51.457,0,0,0,4.93-11.561c.839-2.852.373-7.239,1.814-9.577,1.17-1.9,3.26-2.647,5.894-3.118a15.4,15.4,0,0,1,7.424.963c6.372,2.246,11.97,7.741,9.125,16.832C82.842,70.5,76.734,73.582,72,77.359a25.242,25.242,0,0,0-7.934,12.356,38.576,38.576,0,0,0-.793,4.647c-.9,5.4,2.845,11.542,4.817,14.339,4.5,6.376,9.839,11.162,18.192,13.716,3.577,1.093,8.808,1.549,12.638.341a25.976,25.976,0,0,0,8.274-4.647,21.169,21.169,0,0,0,3.287-3.626c5.338-6.867,8.721-15.569,12.469-24.086,3.781-8.591,9.2-15.658,12.808-24.427,1.579-3.835,3.729-11.381,2.72-17.172-1.948-11.186-7.146-17.58-14.565-23.18-5.024-3.791-11.562-7.475-15.245-12.525-3.381-4.637-1.113-7.693,1.586-11.052q.93-1.023,1.867-2.042h25.787Zm26.3,0,35.705.057c-.7,1.141-2.311,1.9-3.4,2.664-3.943,2.778-12.65,8.26-7.537,15.245a7.8,7.8,0,0,0,3.174,2.607,14.73,14.73,0,0,0,3.287.85c10.026,1.7,13.51-8.015,16.152-14.168C212.688,4.676,213.8,1.61,215.888,0H263.1c.627,0,2.72.113,2.72.113.151-.077.2-.134.4-.057-1.751,4.31-5.468,7.21-9.975,8.784a12.116,12.116,0,0,1-5.61.793q-1.814-.2-3.626-.4c-3.465-.689-8.479-1.615-11.789-.17-6.818,2.977-7.955,10.475-11.561,16.662-4.7,8.059-9.259,13.586-20.175,15.528-4.366.778-9.677-.634-12.864-1.643-8.238-2.607-17.465-7.678-22.272-13.659-1.5-1.871-3.272-3.669-4.306-6.007C161.258,13.69,160.456,5.867,164.2,0ZM290.186,0a37.578,37.578,0,0,1-.567,9.295,33.413,33.413,0,0,1-6.574,12.751q-1.758,1.955-3.513,3.911c-5.129,6.383-11.1,12.061-13.885,20.8a69.093,69.093,0,0,0-1.757,9.238c-.512,3.032-.351,6.048-.963,8.841-1.713,7.808-4.788,14.283-10.315,18.248-4.473,3.21-8.313,4.214-14.961,5.327l-6.461.226-6.177.226q-2.012.17-4.024.341c-4.234.843-8.068,2.384-9.012,6.461a7.233,7.233,0,0,0,1.36,5.668c2.746,4.1,11.378,5.1,18.533,4.873,8.811-.278,16.256-2.275,23.293-4.421,5.565-1.7,12.654-3.006,18.928-.963,10.5,3.416,15.136,11.734,20.912,19.836,5.935,8.325,12.318,14.437,22.387,18.7,2.482,1.052,6.3,2.785,9.238,3.118v15.076l-2.777-.68c-2.688-.752-5.255-1.446-7.765-2.266-6.319-2.071-12.3-4.4-17.342-7.765-1.519-1.012-2.8-2.335-4.193-3.457Q293.274,142.2,292,141c-6.273-7.787-14.786-15.871-25.73-18.928a39.832,39.832,0,0,0-16.662-.68,57.19,57.19,0,0,0-9.181,2.381,49.666,49.666,0,0,0-13.375,7.878c-4.137,3.328-6.579,8.863-8.1,14.791-1.37,5.329-1.751,11-4.193,15.189-1.411,2.422-3.023,5.041-5.158,6.744-4.88,3.9-11.025,7.9-11,16.605H177.687q-.4-.766-.793-1.53-.54-1.472-1.077-2.946c-1.35-4.291-1.143-8.755.85-12.128,2.016-3.412,5.225-6,8.274-8.388,4.188-3.287,9.147-7.693,12.015-12.241a34.922,34.922,0,0,0,4.478-11c2.451-10.463-.911-23.9-4.76-30.491-2.354-4.031-4.43-7.883-9.351-9.351-5.346-1.595-8.983,2.266-10.429,5.61A19.936,19.936,0,0,0,175.758,107a10.538,10.538,0,0,0-.17,3.287,56.811,56.811,0,0,0,1.3,7.311c1.668,5.48,4.31,13.02,2.21,19.723-1.792,5.72-5.989,9.163-10.2,12.469-4.921,3.861-10.1,8.685-12.525,15.019-1.458,3.815-1.41,10.485-.341,14.735q.822,2.721,1.643,5.44H137.162q.6-2.379,1.191-4.76c.522-2.088.471-4.282.85-6.574v-4.986l-.17-4.986c-.749-4.646-.134-9.858,1.814-12.525,5.139-7.042,17.2-7.78,19.608-17.909.6-2.521-.065-5.586-.624-7.594q-1.673-6.007-3.344-12.015c-3.017-11.809,1.543-23.077,8.217-28.281,6.3-4.911,13.7-8.032,22.952-10.088,4.863-1.079,10.19-.98,15.358-1.927,5.567-1.021,10.545-1.708,15.019-3.626,9.563-4.1,15.542-11.479,19.723-20.97,3.1-7.047,5.132-15.023,9.634-20.629,2.888-3.6,7.657-5.584,12.582-7.141,2.635-.832,5.338-1.432,7.537-2.72,5.464-3.2,9.781-7.638,11.845-14.224.4-1.266.368-2.643.743-4.029Zm36.442,0V9.295c-1.352.224-3.784,2.8-4.817,3.626-4.539,3.657-8.287,12.76-6.12,21.422a26.932,26.932,0,0,0,4.817,10.315c.951,1.237,4.419,4.748,6.12,4.93q-.028,12.269-.057,24.54a10.124,10.124,0,0,1-2.72-2.551q-1.5-1.7-3-3.4c-1.632-2.1-3.224-4.394-5.553-5.781-1.451-.863-4.825-2.052-6.177-.341-1.968,2.492-1.278,5.935.057,8.558,1.826,3.587,4.63,6.418,6.744,9.8,2.146,3.44,3.493,7.6,5.553,11.109.867,1.477,3.715,6.174,5.158,6.631v28.451a20.15,20.15,0,0,1-6.914-2.777c-11.376-6.768-11.607-18.072-17-30.321-5.055-11.475-15.067-18.24-18.928-30.83-1.632-5.32-1-12.292.68-17.059a48.925,48.925,0,0,1,3.457-8.388c3.013-5.166,6.244-9.993,8.615-15.812,1.814-4.452,1.924-10.293,3.457-15.189.9-2.871,2.038-4.085,3.457-6.232ZM265.7.283c-.057.132-.113.264-.17.4l.113-.057C265.665.51,265.684.4,265.7.283Zm-1.245.171L264.4.68l-.058.17h1.077l-.057.113.113-.113h-.056ZM264,1.586l-.057.113.113-.113H264ZM17.756,2.04a21.963,21.963,0,0,0,.17,2.664h.057L17.756,2.04Zm246.53.567-1.077,1.36C263.412,3.823,264.44,2.789,264.286,2.607ZM20.646,9.692l.283.624Zm298.1,6.007-.51.793.113-.057C318.486,16.155,318.743,15.939,318.749,15.7Zm-.737.17-.567.68C317.6,16.468,318.136,15.965,318.013,15.869Zm-.737,1.586q-.54.964-1.077,1.927C316.545,19.125,317.365,17.861,317.276,17.455Zm-1.417,2.268-.567.963.341-.283C315.728,20.141,315.9,19.941,315.86,19.723ZM-3.44,40.237V26.126c3.256-.233,7.126-1.132,10.768-.454,9.31,1.734,14.129,5.514,20.175,10.315a44.054,44.054,0,0,1,8.445,8.9,33.439,33.439,0,0,1,5.668,13.262,16.356,16.356,0,0,1,.454,5.781,46.618,46.618,0,0,1-1.077,6.064c-1.5,4.788-3.75,8.885-5.271,13.716a59.583,59.583,0,0,0-1.417,7.765c-.522,3.042.514,7.042,1.191,9.181,2.3,7.29,6.449,12.486,9.295,19.1,2.348,5.459,2.29,11-3.061,13.318-3.935,1.7-9.377.445-12.469-1.134-6.54-3.339-10.874-8.5-13.431-15.812A19.636,19.636,0,0,1,14.7,106.32c1.2-6.281,3.606-10.747,5.838-15.812A81.046,81.046,0,0,0,25.8,75.149c3.782-16.838-7.676-29.667-19.213-33.324A32.689,32.689,0,0,0-3.44,40.239Zm270.843.284c-.188.435-.379.868-.567,1.3h.057v-.113c.192-.231.584-.927.51-1.191ZM164.6,42.279l.057.113Zm.737.283a.693.693,0,0,1,.51.341v.057C165.523,42.917,165.3,42.814,165.335,42.562ZM38.329,46.529l.226.113a.853.853,0,0,1-.113.454l-.17-.113C38.291,46.832,38.31,46.682,38.329,46.529Zm.283.793c.171.072.069,0,.17.113h-.057ZM1.094,51.176c.288.036.312.065.454.226l-.113.113-.283-.057L1.1,51.176Zm.963.339.17.113h-.17Zm-5.5,3.061c5.034,1.679,9.2,4.855,11.222,9.521,3.068,7.1.791,14.934-1.247,21.366-.867,2.737-1.68,5.456-2.72,7.991a52.934,52.934,0,0,1-5.61,11,8.369,8.369,0,0,1-1.586,1.984h-.057V54.577ZM307.7,60.754l-.226.057v.057a17.732,17.732,0,0,1,1.927.17c-.154.457-.659.666-.906,1.077v.17h.057V62.17l1.36-1.134-2.21-.283Zm-2.325.113-.567.624C304.95,61.413,305.46,60.916,305.375,60.867Zm2.777.341c-.248.182-.4.233-.567.51l.057.057.737-.567Zm-.624.113a3.915,3.915,0,0,0-1.191,1.473l.113-.057C306.644,62.292,307.567,61.524,307.528,61.321Zm-2.04.17-.057.113.113-.113Zm2.835.171a4.674,4.674,0,0,0-.793,1.643h.057C307.692,62.969,308.374,61.679,308.323,61.662Zm-.851,1.7L41.955,72.655c.116.1.039,0,.113.17h-.113v-.17ZM39.122,78.1l.226.341c-.075.151-.151.3-.226.454h-.113a1.689,1.689,0,0,0,.113-.793Zm-.113,1.247c.1.182.1.045,0,.226-.1.116,0,.039-.17.113v-.226Zm-.567.51c.171.139.175.182.17.51L38.385,81.5h-.057q.057-.822.113-1.643ZM165.9,83.084l.17.113a1.692,1.692,0,0,1-1.191.85l.113-.226a1.753,1.753,0,0,0,.906-.737Zm-1.36,1.36h.113l-.113.113Zm-.113.057.113.113h-.17ZM326,94.929h.113a1.086,1.086,0,0,1-.793.567C325.451,95.123,325.725,95.129,326,94.929Zm.567.509.057.283-.51.17c.115.545.44.868.51,1.417-.473-.152-.7-.98-.793-1.473.242-.122.577-.175.737-.4ZM38.045,104.847c.116.1.039,0,.113.17H38.1l-.113-.057Zm-.339.339.057.17h-.057l-.057-.057Zm252.878,7.2h.17c.216.175.242.32.341.624h.567v.057c-.115.212-.219.207-.4.341.182.289.365.331.454.737l-.113.057a2.358,2.358,0,0,1-1.021-1.814Zm1.643,1.36.17.113-.113.113-.113-.113Zm-.4.624c.2.077.18.051.283.226.019.113.038.226.057.341l-.283-.057A.716.716,0,0,1,291.83,114.368Zm5.78,4.193c.2.1.067-.031.17.17h-.056Zm2.778,2.04.17.113-.113.113-.113-.113.057-.113Zm3.739.908a2.434,2.434,0,0,1,.793.85l-.113.113a1.542,1.542,0,0,1-.793-.906Zm-290,63.474H-3.44v-9.862c.269-1.149.754-2.405,1.021-3.685q.17-1.871.341-3.741l-.057-1.7c-.2-3.167-.331-5.934-1.3-8.217V126.55c2.921.485,5.629,2.378,7.708,3.854a23.651,23.651,0,0,1,8.445,9.8c2.957,6.883,2.384,16.258.906,24.314q-.311,3.23-.624,6.461a36.432,36.432,0,0,0,.51,10.144q.311,1.927.624,3.854Zm299.464,0h-26.41c-.358-.946-4.824-3.837-5.894-4.591a35.8,35.8,0,0,0-11.9-5.61c-1.376-.349-2.727-.254-4.306-.51a15.527,15.527,0,0,0-5.327.226,29.029,29.029,0,0,0-11,5.1c-1.167.86-4.964,4.079-5.327,5.384H217.642c.334-1.576,1.99-3,2.89-4.137,2.962-3.751,6.838-6.725,10.2-10.088a52.446,52.446,0,0,0,10.542-14.9c2.708-5.816,5.005-12.147,9.918-15.756,2.883-2.117,8.412-4.258,13.431-2.72,10.691,3.275,13.21,17.566,21.65,23.747,3.077,2.253,7.09,3.592,10.6,5.384,5.238,2.676,9.815,6,13.092,10.655,1.149,1.632,3.45,5.437,3.626,7.821Zm12.979-43.922.057.737c-.692-.271-2.083.019-2.72-.454l.057-.113c.875.022,2.122.192,2.607-.17Zm-263.419,8.1h0ZM36.515,151.2l.17.057-.113.17-.113-.113.057-.113Zm-2.153.284h.226v.17h-.226Zm-.964.17h.283v.226H33.4Zm-3.287,1.077h0Zm-.226.226.057.113Zm-14.509.51H15.6v.341h-.226Zm35.7,2.492c.245.012.274.015.4.113l-.17.113c-.242.1-.247.062-.341-.17l.113-.057Zm1.417,1.814c.207.06.166.046.283.17l-.057.226H52.5l-.113-.057a.545.545,0,0,1,.113-.341Zm.17,27.2H32.378c.053-8.013-7.688-20.893,1.3-25.107a11.961,11.961,0,0,1,10.485.567c5.348,3.249,7.441,9.973,8.784,17.229.461,2.489-.206,5.1-.283,7.311Zm-26.976-25.22.113.113-.057.057-.113-.057v-.057l.057-.057Zm197.393.226.113.113ZM14.469,163.05c.2.1.152.048.226.283h-.057l-.17-.113v-.17Zm.567.51c.161.151.175.231.17.567h-.17c-.019-.132-.038-.264-.057-.4Zm207.311.17v0Zm-.057.226.057.17h-.057Zm-.113.454h.113l-.113.113Zm-.226.454.057.113Zm-166,2.946.226.113v.226h-.226v-.341Zm10.088,1.871h.17l-.17,1.191h-.057Zm-9.577.17.057.113Zm-.057.454c.2.1.067-.031.17.17h-.057Zm9.125,4.365c.2.089.18.122.283.283C65.57,174.868,65.622,174.9,65.532,174.669Zm-47.55.4c.281.057.212.039.341.226l-.057.51-.057.113-.341-.17.113-.68Zm233.78,1.984c-.226.151-.454.3-.68.454C251.385,177.374,251.776,177.161,251.762,177.048Zm-195.242.68.226.057c-.036.206-.022.171-.113.283l-.226-.226Zm7.311,5.612h0Zm.057.113H64C63.9,183.508,63.989,183.5,63.888,183.453ZM53.8,184.87c.255.019.351-.007.51.113C54.109,184.988,53.668,185.06,53.8,184.87Z" transform="translate(33.573 98)"/></g></g></svg>