<svg id="Logo_Small" data-name="Logo Small" xmlns="http://www.w3.org/2000/svg" width="111.404" height="24" viewBox="0 0 111.404 24">
  <g id="Group_4" data-name="Group 4">
    <path id="Path_2" data-name="Path 2" d="M57.3,74.583c.4-.061.461-.152.461-.61V58.4c0-.457-.029-.549-.461-.61l-1.816-.213V55.136h9.773c5.333,0,6.948,2.987,6.948,6.492,0,5.3-3.027,7.437-7.9,7.437H62.2v4.877c0,.488.058.579.461.609l4.123.244V77.2h-11.3V74.8ZM67.65,61.9c0-2.926-1.7-3.444-3.748-3.444H62.2V65.8h1.441C65.546,65.8,67.65,65.347,67.65,61.9Z" transform="translate(-55.484 -53.55)" fill="#fff"/>
    <path id="Path_3" data-name="Path 3" d="M138.594,93.027c.4-.058.461-.144.461-.576V84c0-.317-.086-.519-.375-.605l-1.557-.548.317-2.335h5.074l.346,2.307h.173a4.829,4.829,0,0,1,4.065-2.595,13.407,13.407,0,0,1,2.508.259v5.247l-3.46-.115-.288-1.528c-.058-.259-.144-.317-.375-.317a3.816,3.816,0,0,0-2.076,1.009v7.64c0,.461.029.548.461.577l2.854.231v2.307H137.3V93.2Z" transform="translate(-117.84 -71.882)" fill="#fff"/>
    <path id="Path_4" data-name="Path 4" d="M206.341,95.882c-5.564,0-7.467-3.46-7.467-7.957,0-5.218,3.2-7.7,7.15-7.7,3.806,0,6.342,1.989,6.342,6.977,0,.346-.029,1.355-.058,1.932h-8.822c.144,2.047,1.038,3.4,3.4,3.4a12.282,12.282,0,0,0,4.3-.98l1.067,2.854A13.464,13.464,0,0,1,206.341,95.882Zm-.4-12.541c-1.24,0-2.249.692-2.422,3.056H208.1C208.071,83.975,207.119,83.341,205.937,83.341Z" transform="translate(-164.98 -71.882)" fill="#fff"/>
    <path id="Path_5" data-name="Path 5" d="M275.643,83.139a6.881,6.881,0,0,0-1.845-.231c-1.441,0-2.249.548-2.249,1.47,0,1.182,1.586,1.441,3.344,1.845,2.278.519,4.844,1.326,4.844,4.7,0,3.517-2.854,4.959-6.516,4.959a14.757,14.757,0,0,1-5.708-1.038v-4.18l3.085.231.288,1.643c.058.259.086.346.346.432a7.493,7.493,0,0,0,2.22.288c1.528,0,2.393-.432,2.393-1.5,0-1.153-1.153-1.5-2.624-1.759-2.422-.432-5.593-.951-5.593-4.728,0-3.575,3.056-5.045,6.371-5.045a17.162,17.162,0,0,1,5.3.836v4.18l-3.085-.2-.288-1.5C275.874,83.283,275.845,83.2,275.643,83.139Z" transform="translate(-217.44 -71.882)" fill="#fff"/>
    <path id="Path_6" data-name="Path 6" d="M334.161,82.711c-3.431,0-4.728-1.468-4.728-4.923V69.778c0-.183,0-.306-.231-.306h-2.018V66.751c2.537-.306,3.546-1.651,3.863-4.984h2.739v4.342c0,.214,0,.306.231.306h4.065v3.058h-4.3v7.307c0,1.8.4,2.507,1.961,2.507a6.53,6.53,0,0,0,2.335-.489l.778,2.69A10.989,10.989,0,0,1,334.161,82.711Z" transform="translate(-263.044 -58.711)" fill="#fff"/>
    <path id="Path_7" data-name="Path 7" d="M386.893,69.029c.4-.061.461-.152.461-.607V59.494c0-.334-.087-.547-.375-.638l-1.557-.577.317-2.46h5.968v12.6c0,.486.029.547.461.607l1.47.213v2.4h-8.217v-2.4Zm2.249-15.638a2.432,2.432,0,0,1-2.595-2.733,2.61,2.61,0,1,1,5.218,0A2.44,2.44,0,0,1,389.141,53.391Z" transform="translate(-307.716 -47.986)" fill="#fff"/>
    <path id="Path_8" data-name="Path 8" d="M427.41,88.126c0-4.786,2.508-7.9,7.784-7.9,5.333,0,7.409,3.171,7.409,7.582,0,4.9-2.479,8.072-7.784,8.072C429.544,95.882,427.41,92.653,427.41,88.126Zm10.638-.173c0-3.4-1.038-4.613-2.912-4.613-1.9,0-3.171,1.182-3.171,4.641,0,3.489,1.124,4.872,3.056,4.872C436.9,92.855,438.048,91.557,438.048,87.953Z" transform="translate(-339.382 -71.882)" fill="#fff"/>
  </g>
  <g id="Group_5" data-name="Group 5" transform="translate(106.474 19.503)">
    <path id="Path_9" data-name="Path 9" d="M513.072,135.036c-1.672,0-2.479-.75-2.479-2.249,0-1.47.807-2.249,2.479-2.249,1.615,0,2.451.778,2.451,2.249S514.716,135.036,513.072,135.036Z" transform="translate(-510.593 -130.539)" fill="#f46d0f"/>
  </g>
</svg>
