<svg id="Logo_Default" data-name="Logo Default" xmlns="http://www.w3.org/2000/svg" width="185.674" height="40" viewBox="0 0 185.674 40">
  <g id="Group_4" data-name="Group 4">
    <path id="Path_2" data-name="Path 2" d="M58.575,87.488c.687-.1.785-.253.785-1.014V60.562c0-.761-.049-.913-.785-1.014l-3.091-.355V55.136H72.115c9.076,0,11.823,4.97,11.823,10.8,0,8.823-5.151,12.373-13.442,12.373H66.915v8.114c0,.811.1.963.785,1.014l7.016.406v4.006H55.484V87.843ZM76.187,66.393c0-4.868-2.894-5.73-6.378-5.73H66.915V72.884h2.453C72.606,72.884,76.187,72.124,76.187,66.393Z" transform="translate(-55.484 -52.438)" fill="#fff"/>
    <path id="Path_3" data-name="Path 3" d="M139.626,102.009c.687-.1.785-.245.785-.981V86.654c0-.54-.147-.883-.638-1.03l-2.649-.932.54-3.974H146.3l.589,3.925h.294c1.619-2.5,3.778-4.416,6.917-4.416a22.817,22.817,0,0,1,4.268.442V89.6l-5.887-.2-.491-2.6c-.1-.442-.245-.54-.638-.54a6.494,6.494,0,0,0-3.532,1.717v13c0,.785.049.932.785.981l4.857.392v3.925H137.418V102.3Z" transform="translate(-105.138 -66.866)" fill="#fff"/>
    <path id="Path_4" data-name="Path 4" d="M211.58,106.866c-9.468,0-12.706-5.887-12.706-13.541,0-8.879,5.446-13.1,12.167-13.1,6.476,0,10.793,3.385,10.793,11.872,0,.589-.049,2.306-.1,3.287H206.724c.245,3.483,1.766,5.789,5.789,5.789a20.9,20.9,0,0,0,7.31-1.668l1.815,4.857A22.912,22.912,0,0,1,211.58,106.866Zm-.687-21.341c-2.109,0-3.826,1.177-4.121,5.2h7.8C214.524,86.6,212.9,85.526,210.893,85.526Z" transform="translate(-142.67 -66.866)" fill="#fff"/>
    <path id="Path_5" data-name="Path 5" d="M281.348,85.182a11.71,11.71,0,0,0-3.14-.392c-2.453,0-3.827.932-3.827,2.5,0,2.011,2.7,2.453,5.691,3.14,3.876.883,8.242,2.257,8.242,8,0,5.985-4.857,8.438-11.088,8.438-4.464,0-8.83-1.178-9.714-1.766V97.987l5.25.392.491,2.8c.1.442.147.589.589.736a12.75,12.75,0,0,0,3.777.491c2.6,0,4.072-.736,4.072-2.551,0-1.962-1.963-2.551-4.465-2.993-4.121-.736-9.518-1.619-9.518-8.046,0-6.084,5.2-8.585,10.842-8.585a29.2,29.2,0,0,1,9.027,1.423v7.114l-5.25-.343-.49-2.551C281.74,85.427,281.691,85.28,281.348,85.182Z" transform="translate(-184.451 -66.866)" fill="#fff"/>
    <path id="Path_6" data-name="Path 6" d="M339.056,96.567c-5.838,0-8.046-2.438-8.046-8.179V75.077c0-.3,0-.508-.392-.508h-3.434V70.047c4.317-.508,6.034-2.743,6.574-8.28h4.66v7.214c0,.356,0,.508.392.508h6.918v5.08h-7.31V86.711c0,3,.687,4.166,3.336,4.166a11.341,11.341,0,0,0,3.974-.813l1.325,4.47A19.055,19.055,0,0,1,339.056,96.567Z" transform="translate(-220.771 -56.567)" fill="#fff"/>
    <path id="Path_7" data-name="Path 7" d="M387.924,83.046c.687-.1.785-.253.785-1.012V67.16c0-.556-.148-.911-.638-1.062l-2.649-.961.54-4.1h10.155v21c0,.81.049.911.785,1.012l2.5.354v4H385.422v-4Zm3.827-26.055c-2.8,0-4.416-1.669-4.416-4.554s1.619-4.452,4.416-4.452c2.845,0,4.464,1.568,4.464,4.452S394.6,56.991,391.751,56.991Z" transform="translate(-256.382 -47.986)" fill="#fff"/>
    <path id="Path_8" data-name="Path 8" d="M427.41,93.67c0-8.144,4.268-13.443,13.246-13.443,9.076,0,12.608,5.4,12.608,12.9,0,8.341-4.219,13.737-13.246,13.737C431.041,106.866,427.41,101.372,427.41,93.67Zm18.1-.295c0-5.789-1.766-7.849-4.955-7.849-3.238,0-5.4,2.011-5.4,7.9,0,5.937,1.913,8.291,5.2,8.291C443.551,101.715,445.513,99.507,445.513,93.375Z" transform="translate(-281.516 -66.866)" fill="#fff"/>
  </g>
  <g id="Group_5" data-name="Group 5" transform="translate(177.285 32.347)">
    <path id="Path_9" data-name="Path 9" d="M514.812,138.192c-2.845,0-4.219-1.276-4.219-3.826,0-2.5,1.374-3.827,4.219-3.827,2.748,0,4.17,1.325,4.17,3.827S517.609,138.192,514.812,138.192Z" transform="translate(-510.593 -130.539)" fill="#f46d0f"/>
  </g>
</svg>
